<?xml version="1.0" encoding="utf-8"?>
<!-- Generator: Adobe Illustrator 16.0.0, SVG Export Plug-In . SVG Version: 6.00 Build 0)  -->
<!DOCTYPE svg PUBLIC "-//W3C//DTD SVG 1.1//EN" "http://www.w3.org/Graphics/SVG/1.1/DTD/svg11.dtd">
<svg version="1.1" id="Layer_1" xmlns="http://www.w3.org/2000/svg" xmlns:xlink="http://www.w3.org/1999/xlink" x="0px" y="0px"
	 width="234.97px" height="303px" viewBox="0 0 234.97 303" enable-background="new 0 0 234.97 303" xml:space="preserve">
<g>
	<path fill-rule="evenodd" clip-rule="evenodd" fill="#157EC7" d="M205.963,70.833c-7.421,3.426-14.188,6.313-20.727,9.648
		c-4.555,2.323-7.762,3.276-12.64-0.847c-9.216-7.791-20.71-12.017-32.468-14.466c-20.845-4.339-41.566-3.611-61.384,4.914
		c-6.692,2.878-12.73,7.252-19.185,10.727c-1.486,0.8-3.792,1.497-5.145,0.911c-14.771-6.394-29.471-12.96-44.069-19.74
		C8.237,61,6.763,58.653,4.995,56.937c1.764-1.732,3.222-4.142,5.337-5.095C44.449,36.466,78.636,21.243,112.875,6.138
		c1.699-0.75,4.302-0.77,5.996-0.021c34.272,15.12,68.475,30.399,102.685,45.66c1.2,0.535,2.446,1.06,3.493,1.831
		c2.79,2.058,2.825,5.356,0.186,7.501c-0.257,0.21-0.522,0.497-0.821,0.557c-9.063,1.794-8.732,8.495-8.514,15.543
		c0.304,9.814,0.016,19.646,0.114,29.469c0.038,3.726-1.357,6.417-5.217,6.163c-3.344-0.22-4.891-2.737-4.865-6.259
		C206.017,94.931,205.963,83.28,205.963,70.833z"/>
	<path fill-rule="evenodd" clip-rule="evenodd" fill="#167EC7" d="M6.992,185.925c-0.004-18.997-0.019-37.992,0.002-56.989
		c0.011-9.598,0.657-10.018,10.158-10.048c19.334-0.063,37.474,4.899,54.712,13.177c14.018,6.731,26.229,16.066,35.875,28.372
		c1.794,2.289,3.096,5.662,3.111,8.543c0.203,38.492,0.147,76.986,0.097,115.479c-0.002,1.606-0.313,3.319-0.921,4.801
		c-2.052,4.999-5.714,5.791-9.409,1.818c-8.881-9.548-19.115-17.277-30.575-23.409c-12.042-6.444-24.891-10.341-38.476-11.668
		c-5.756-0.562-11.552-0.689-17.321-1.128c-5.396-0.411-7.226-2.41-7.236-7.96C6.975,226.585,6.996,206.254,6.992,185.925z
		 M28.496,140.323c-0.246,0.797-0.426,1.108-0.426,1.42c-0.031,30.14-0.009,60.28-0.123,90.419c-0.013,3.332,1.629,3.65,4.306,3.856
		c16.439,1.264,31.937,5.795,46.294,13.973c5.057,2.879,9.982,5.992,14.795,8.896c0-7.484,0.008-14.631-0.001-21.778
		c-0.028-20.473-0.009-40.946-0.182-61.417c-0.017-1.977-0.745-4.362-1.997-5.828c-2.685-3.141-5.733-6.054-8.978-8.623
		C66.502,148.828,48.5,142.261,28.496,140.323z"/>
	<path fill-rule="evenodd" clip-rule="evenodd" fill="#167EC7" d="M225.934,187.006c0.006,18.983,0.011,37.967,0.004,56.951
		c-0.003,8.659-2.157,10.728-10.875,11.003c-24.617,0.776-47.458,7.135-67.233,22.336c-5.073,3.9-9.628,8.544-14.057,13.194
		c-4.065,4.268-8.373,3.95-10.748-1.493c-0.764-1.753-0.999-3.858-1.002-5.802c-0.055-37.473,0.014-74.943-0.088-112.415
		c-0.019-6.971,4.516-11.417,8.629-15.683c18.183-18.854,40.308-30.432,66.354-34.097c6.841-0.963,13.742-1.647,20.639-2.03
		c6.342-0.354,8.272,1.608,8.351,8.088c0.127,10.49,0.023,20.982,0.021,31.473C225.926,168.023,225.928,177.514,225.934,187.006z
		 M204.973,140.543c-4.104,0.556-7.389,0.869-10.624,1.461c-19.479,3.572-36.619,11.667-50.539,26.081
		c-2.815,2.916-3.993,5.968-3.959,10.123c0.208,25.469,0.119,50.939,0.129,76.41c0,1.413,0,2.826,0,4.936
		c1.233-0.747,1.773-1.012,2.244-1.368c17.15-12.98,36.584-20.018,57.859-22.316c3.636-0.394,5.034-2.184,5.001-6.201
		c-0.215-26.966-0.112-53.936-0.112-80.905C204.973,146.302,204.973,143.84,204.973,140.543z"/>
	<path fill-rule="evenodd" clip-rule="evenodd" fill="#167EC7" d="M114.217,69.745c20.583,0.737,37.407,4.111,51.567,15.361
		c4.314,3.427,7.894,7.954,11.195,12.431c3.164,4.291,2.122,6.529-2.895,8.51c-8.248,3.258-16.8,5.917-24.665,9.925
		c-9.81,5-19.244,10.82-28.436,16.897c-3.267,2.16-5.282,2.13-8.383,0.247c-10.416-6.326-20.783-12.792-31.595-18.381
		c-6.958-3.596-14.664-5.748-22.036-8.543c-5.718-2.167-6.414-3.955-2.863-9.034c8.981-12.844,21.755-20.237,36.61-23.939
		C100.666,71.238,108.942,70.565,114.217,69.745z"/>
</g>
</svg>
