<?xml version="1.0" encoding="utf-8"?>
<!-- Generator: Adobe Illustrator 16.0.0, SVG Export Plug-In . SVG Version: 6.00 Build 0)  -->
<!DOCTYPE svg PUBLIC "-//W3C//DTD SVG 1.1//EN" "http://www.w3.org/Graphics/SVG/1.1/DTD/svg11.dtd">
<svg version="1.1" id="Layer_1" xmlns="http://www.w3.org/2000/svg" xmlns:xlink="http://www.w3.org/1999/xlink" x="0px" y="0px"
	 width="371.881px" height="377.184px" viewBox="0 0 371.881 377.184" enable-background="new 0 0 371.881 377.184"
	 xml:space="preserve">
<g>
	<path fill-rule="evenodd" clip-rule="evenodd" d="M301.68,243.302c18.05-0.131,35.569-3.144,52.584-9.031
		c5.289-1.83,10.125-1.724,14.19,2.449c4.054,4.161,4.183,8.987,2.095,14.224c-25.792,64.681-72.581,105.038-141.025,117.769
		c-79.45,14.777-157.409-23.585-195.403-93.927c-53.42-98.9-6.647-222.684,98.754-261.478c4.524-1.665,8.743-2.004,12.823,0.839
		c4.63,3.228,6.206,8.604,4.115,14.686c-4.28,12.452-7.253,25.18-8.303,38.314c-3.826,47.91,10.305,89.831,42.976,125.043
		c26.477,28.536,59.581,44.759,98.146,49.75C288.934,242.756,295.329,242.867,301.68,243.302z M120.009,45.856
		c-48.14,24.208-92.892,86.282-82.429,162.872c9.919,72.616,67.739,130.276,142.804,138.202
		c72.369,7.64,132.996-34.238,157.595-83.139c-64.01,10.27-120.749-5.068-166.816-51.13
		C125.1,166.604,109.755,109.87,120.009,45.856z"/>
</g>
</svg>
