<?xml version="1.0" encoding="utf-8"?>
<!-- Generator: Adobe Illustrator 16.0.0, SVG Export Plug-In . SVG Version: 6.00 Build 0)  -->
<!DOCTYPE svg PUBLIC "-//W3C//DTD SVG 1.1//EN" "http://www.w3.org/Graphics/SVG/1.1/DTD/svg11.dtd">
<svg version="1.1" id="Layer_1" xmlns="http://www.w3.org/2000/svg" xmlns:xlink="http://www.w3.org/1999/xlink" x="0px" y="0px"
	 width="383.952px" height="383.952px" viewBox="0 0 383.952 383.952" enable-background="new 0 0 383.952 383.952"
	 xml:space="preserve">
<g>
	<path fill-rule="evenodd" clip-rule="evenodd" fill="#FFFFFF" d="M197.059,0.75c6.468,2.987,8.607,8.097,8.349,15.072
		c-0.384,10.336-0.078,20.698-0.106,31.048c-0.021,7.543-4.638,12.536-11.428,12.444c-6.587-0.089-11.038-5.066-11.056-12.446
		c-0.025-10.35,0.28-20.712-0.106-31.048c-0.261-6.977,1.874-12.088,8.349-15.07C193.06,0.75,195.06,0.75,197.059,0.75z"/>
	<path fill-rule="evenodd" clip-rule="evenodd" fill="#FFFFFF" d="M2.083,189.726c2.987-6.469,8.094-8.611,15.073-8.349
		c10.336,0.387,20.698,0.08,31.048,0.107c7.554,0.02,12.536,4.625,12.442,11.423c-0.091,6.594-5.056,11.04-12.44,11.06
		c-10.351,0.028-20.712-0.279-31.048,0.107c-6.978,0.261-12.082-1.89-15.075-8.349C2.083,193.726,2.083,191.726,2.083,189.726z"/>
	<path fill-rule="evenodd" clip-rule="evenodd" fill="#FFFFFF" d="M386.035,195.726c-2.979,6.482-8.102,8.604-15.072,8.348
		c-10.338-0.382-20.7-0.078-31.052-0.106c-7.54-0.021-12.532-4.639-12.442-11.432c0.088-6.591,5.054-11.032,12.442-11.051
		c10.353-0.027,20.715,0.277,31.053-0.106c6.974-0.259,12.096,1.86,15.071,8.348C386.035,191.726,386.035,193.726,386.035,195.726z"
		/>
	<path fill-rule="evenodd" clip-rule="evenodd" fill="#FFFFFF" d="M289.599,192.693c0.036,52.75-42.898,95.672-95.609,95.582
		c-52.812-0.091-95.662-43.051-95.474-95.717c0.188-52.745,42.69-95.23,95.423-95.384
		C246.63,97.022,289.561,139.889,289.599,192.693z M121.012,192.394c-0.274,40.307,32.442,73.239,72.903,73.384
		c40.197,0.145,72.899-32.353,73.187-72.729c0.286-40.302-32.444-73.244-72.906-73.376
		C153.986,119.54,121.287,152.033,121.012,192.394z"/>
	<path fill-rule="evenodd" clip-rule="evenodd" fill="#FFFFFF" d="M321.436,332.465c-2.643-1.458-5.738-2.441-7.85-4.456
		c-8.488-8.099-16.731-16.459-24.948-24.839c-4.72-4.814-4.734-11.649-0.302-16.123c4.419-4.461,11.299-4.505,16.123,0.211
		c8.48,8.291,16.842,16.707,25.165,25.155c3.601,3.654,4.41,8.078,2.349,12.771C330.088,329.477,326.553,331.543,321.436,332.465z"
		/>
	<path fill-rule="evenodd" clip-rule="evenodd" fill="#FFFFFF" d="M333.123,66.38c-0.688,1.348-1.499,4.418-3.417,6.432
		c-8.268,8.673-16.781,17.118-25.364,25.483c-4.784,4.663-11.783,4.501-16.119-0.007c-4.265-4.435-4.288-11.197,0.269-15.854
		c8.384-8.565,16.879-17.022,25.433-25.418c3.55-3.483,7.896-4.204,12.462-2.279C330.726,56.566,332.755,60.115,333.123,66.38z"/>
	<path fill-rule="evenodd" clip-rule="evenodd" fill="#FFFFFF" d="M54.536,65.316c0.643-4.958,2.696-8.494,6.94-10.46
		c4.198-1.945,8.571-1.707,11.909,1.505c9.175,8.826,18.219,17.801,26.999,27.019c4.027,4.228,3.427,10.918-0.553,14.971
		c-4.083,4.158-10.924,4.739-15.254,0.599c-9.113-8.711-17.994-17.673-26.728-26.765C56.174,70.443,55.611,67.634,54.536,65.316z"/>
	<path fill-rule="evenodd" clip-rule="evenodd" fill="#FFFFFF" d="M66.492,332.35c-4.857-0.826-8.304-2.836-10.243-6.906
		c-1.988-4.171-1.841-8.583,1.365-11.924c8.9-9.275,17.954-18.419,27.285-27.256c4.297-4.07,11.291-3.172,15.202,1.119
		c4.038,4.43,4.017,10.993-0.426,15.583c-7.294,7.534-14.792,14.872-22.206,22.289c-1.148,1.147-2.151,2.546-3.502,3.36
		C71.589,330.05,68.995,331.124,66.492,332.35z"/>
	<path fill-rule="evenodd" clip-rule="evenodd" fill="#FFFFFF" d="M182.812,355.455c0-5.872-0.053-11.744,0.014-17.615
		c0.078-6.757,4.739-11.629,11.068-11.704c6.527-0.077,11.353,4.802,11.394,11.744c0.068,11.618,0.062,23.238,0.003,34.856
		c-0.035,6.952-4.832,11.963-11.254,11.951c-6.419-0.011-11.152-5.031-11.215-11.991
		C182.771,366.95,182.812,361.202,182.812,355.455z"/>
</g>
</svg>
